<mxfile host="app.diagrams.net" agent="Mozilla/5.0 (iPad; CPU OS 18_3_2 like Mac OS X) AppleWebKit/605.1.15 (KHTML, like Gecko) CriOS/136.0.7103.56 Mobile/15E148 Safari/604.1" version="26.2.14">
  <diagram name="Page-1" id="Z2bi_UMhHENxA_UtgqlC">
    <mxGraphModel>
      <root>
        <mxCell id="0" />
        <mxCell id="1" parent="0" />
      </root>
    </mxGraphModel>
  </diagram>
</mxfile>
